<svg width="950" height="520" viewBox="0 0 950 520" xmlns="http://www.w3.org/2000/svg">
<style>text{font-family:"DejaVu Sans",sans-serif}</style>
<rect width="950" height="520" fill="#020617"/>
<text x="475" y="28" text-anchor="middle" fill="#e2e8f0" font-size="14" font-weight="bold">Figure 10. Comprehensive Method Comparison</text>
<text x="475" y="44" text-anchor="middle" fill="#94a3b8" font-size="10">All major approaches on 50K headline dataset</text>
<text x="100" y="70" fill="#e2e8f0" font-size="9" font-weight="bold">Method</text><text x="300" y="70" fill="#e2e8f0" font-size="9" font-weight="bold">Cov.</text><text x="380" y="70" fill="#e2e8f0" font-size="9" font-weight="bold">Topics</text><text x="460" y="70" fill="#e2e8f0" font-size="9" font-weight="bold">Hier.</text><text x="530" y="70" fill="#e2e8f0" font-size="9" font-weight="bold">Interp.</text><text x="620" y="70" fill="#e2e8f0" font-size="9" font-weight="bold">Outliers</text><text x="720" y="70" fill="#e2e8f0" font-size="9" font-weight="bold">LLM Cost</text><line x1="80" y1="75" x2="850" y2="75" stroke="#334155" stroke-width="1"/><rect x="80" y="80" width="800" height="28" rx="2" fill="#1e293b"/><text x="100" y="92" fill="#cbd5e1" font-size="9">BERTopic (Exp A)</text><text x="300" y="92" fill="#cbd5e1" font-size="9">65.0%</text><text x="380" y="92" fill="#cbd5e1" font-size="9">35</text><text x="460" y="92" fill="#cbd5e1" font-size="9">No</text><text x="530" y="92" fill="#cbd5e1" font-size="9">Keywords</text><text x="620" y="92" fill="#cbd5e1" font-size="9">17,500</text><text x="720" y="92" fill="#cbd5e1" font-size="9">None</text><rect x="80" y="110" width="800" height="28" rx="2" fill="transparent"/><text x="100" y="122" fill="#cbd5e1" font-size="9">BERTopic (Exp B)</text><text x="300" y="122" fill="#cbd5e1" font-size="9">82.5%</text><text x="380" y="122" fill="#cbd5e1" font-size="9">84</text><text x="460" y="122" fill="#cbd5e1" font-size="9">No</text><text x="530" y="122" fill="#cbd5e1" font-size="9">Keywords</text><text x="620" y="122" fill="#cbd5e1" font-size="9">8,750</text><text x="720" y="122" fill="#cbd5e1" font-size="9">None</text><rect x="80" y="140" width="800" height="28" rx="2" fill="#1e293b"/><text x="100" y="152" fill="#cbd5e1" font-size="9">TF-IDF+K-Means (C)</text><text x="300" y="152" fill="#cbd5e1" font-size="9">78.0%</text><text x="380" y="152" fill="#cbd5e1" font-size="9">50</text><text x="460" y="152" fill="#cbd5e1" font-size="9">No</text><text x="530" y="152" fill="#cbd5e1" font-size="9">Bow</text><text x="620" y="152" fill="#cbd5e1" font-size="9">10,000</text><text x="720" y="152" fill="#cbd5e1" font-size="9">None</text><rect x="80" y="170" width="800" height="28" rx="2" fill="transparent"/><text x="100" y="182" fill="#cbd5e1" font-size="9">Hierarchical (D)</text><text x="300" y="182" fill="#cbd5e1" font-size="9">75.0%</text><text x="380" y="182" fill="#cbd5e1" font-size="9">50</text><text x="460" y="182" fill="#cbd5e1" font-size="9">Yes</text><text x="530" y="182" fill="#cbd5e1" font-size="9">Bow</text><text x="620" y="182" fill="#cbd5e1" font-size="9">11,000</text><text x="720" y="182" fill="#cbd5e1" font-size="9">None</text><rect x="80" y="200" width="800" height="28" rx="2" fill="#1e293b"/><text x="100" y="212" fill="#cbd5e1" font-size="9">mpnet+BERTopic (E)</text><text x="300" y="212" fill="#cbd5e1" font-size="9">84.0%</text><text x="380" y="212" fill="#cbd5e1" font-size="9">68</text><text x="460" y="212" fill="#cbd5e1" font-size="9">No</text><text x="530" y="212" fill="#cbd5e1" font-size="9">Keywords</text><text x="620" y="212" fill="#cbd5e1" font-size="9">8,000</text><text x="720" y="212" fill="#cbd5e1" font-size="9">None</text><rect x="80" y="230" width="800" height="28" rx="2" fill="transparent"/><text x="100" y="242" fill="#cbd5e1" font-size="9">Text Augment (F)</text><text x="300" y="242" fill="#cbd5e1" font-size="9">81.0%</text><text x="380" y="242" fill="#cbd5e1" font-size="9">42</text><text x="460" y="242" fill="#cbd5e1" font-size="9">No</text><text x="530" y="242" fill="#cbd5e1" font-size="9">Keywords</text><text x="620" y="242" fill="#cbd5e1" font-size="9">9,500</text><text x="720" y="242" fill="#cbd5e1" font-size="9">None</text><rect x="80" y="260" width="800" height="28" rx="2" fill="#1e293b"/><text x="100" y="272" fill="#cbd5e1" font-size="9">Outlier Reassign (G)</text><text x="300" y="272" fill="#cbd5e1" font-size="9">87.0%</text><text x="380" y="272" fill="#cbd5e1" font-size="9">84</text><text x="460" y="272" fill="#cbd5e1" font-size="9">No</text><text x="530" y="272" fill="#cbd5e1" font-size="9">Keywords</text><text x="620" y="272" fill="#cbd5e1" font-size="9">6,500</text><text x="720" y="272" fill="#cbd5e1" font-size="9">None</text><rect x="80" y="290" width="800" height="28" rx="2" fill="transparent"/><text x="100" y="302" fill="#cbd5e1" font-size="9">Multi-Gran Hier (H)</text><text x="300" y="302" fill="#cbd5e1" font-size="9">88.0%</text><text x="380" y="302" fill="#cbd5e1" font-size="9">96</text><text x="460" y="302" fill="#cbd5e1" font-size="9">Yes(2L)</text><text x="530" y="302" fill="#cbd5e1" font-size="9">Bow</text><text x="620" y="302" fill="#cbd5e1" font-size="9">6,000</text><text x="720" y="302" fill="#cbd5e1" font-size="9">None</text><rect x="80" y="320" width="800" height="28" rx="2" fill="#1e293b"/><text x="100" y="332" fill="#cbd5e1" font-size="9">Leiden k-NN (I)</text><text x="300" y="332" fill="#cbd5e1" font-size="9">100.0%</text><text x="380" y="332" fill="#cbd5e1" font-size="9">29</text><text x="460" y="332" fill="#cbd5e1" font-size="9">No</text><text x="530" y="332" fill="#cbd5e1" font-size="9">Keywords</text><text x="620" y="332" fill="#cbd5e1" font-size="9">0</text><text x="720" y="332" fill="#cbd5e1" font-size="9">None</text><rect x="80" y="350" width="800" height="28" rx="2" fill="transparent"/><text x="100" y="362" fill="#cbd5e1" font-size="9">Bayesian GMM (I.2)</text><text x="300" y="362" fill="#cbd5e1" font-size="9">97.8%</text><text x="380" y="362" fill="#cbd5e1" font-size="9">58</text><text x="460" y="362" fill="#cbd5e1" font-size="9">No</text><text x="530" y="362" fill="#cbd5e1" font-size="9">Probs</text><text x="620" y="362" fill="#cbd5e1" font-size="9">6</text><text x="720" y="362" fill="#cbd5e1" font-size="9">None</text><rect x="80" y="380" width="800" height="28" rx="2" fill="#1e293b"/><text x="100" y="392" fill="#cbd5e1" font-size="9">LLM+Merge (J)</text><text x="300" y="392" fill="#cbd5e1" font-size="9">94.0%</text><text x="380" y="392" fill="#cbd5e1" font-size="9">45</text><text x="460" y="392" fill="#cbd5e1" font-size="9">No</text><text x="530" y="392" fill="#cbd5e1" font-size="9">LLM</text><text x="620" y="392" fill="#cbd5e1" font-size="9">3,000</text><text x="720" y="392" fill="#cbd5e1" font-size="9">~$15</text><rect x="80" y="410" width="800" height="28" rx="2" fill="transparent"/><text x="100" y="422" fill="#cbd5e1" font-size="9">Consensus (K)</text><text x="300" y="422" fill="#cbd5e1" font-size="9">96.5%</text><text x="380" y="422" fill="#cbd5e1" font-size="9">50</text><text x="460" y="422" fill="#cbd5e1" font-size="9">No</text><text x="530" y="422" fill="#cbd5e1" font-size="9">Ensemble</text><text x="620" y="422" fill="#cbd5e1" font-size="9">1,750</text><text x="720" y="422" fill="#cbd5e1" font-size="9">None</text><rect x="80" y="440" width="800" height="28" rx="4" fill="#0f172a" stroke="#22d3ee" stroke-width="1.5"/><text x="100" y="452" fill="#22d3ee" font-size="9">Catalog Pipeline</text><text x="300" y="452" fill="#22d3ee" font-size="9">94.3%</text><text x="380" y="452" fill="#22d3ee" font-size="9">585</text><text x="460" y="452" fill="#22d3ee" font-size="9">Yes(3L)</text><text x="530" y="452" fill="#22d3ee" font-size="9">LLM</text><text x="620" y="452" fill="#22d3ee" font-size="9">0</text><text x="720" y="452" fill="#22d3ee" font-size="9">592 calls</text>
</svg>