<svg width="950" height="650" viewBox="0 0 950 650" xmlns="http://www.w3.org/2000/svg">
<style>text{font-family:"DejaVu Sans",sans-serif}</style>
<rect width="950" height="650" fill="#020617"/>
<text x="475" y="28" text-anchor="middle" fill="#e2e8f0" font-size="15" font-weight="bold">Figure 3. Quantitative Benchmark: Six Clustering Methods × Four Metrics</text>
<text x="475" y="44" text-anchor="middle" fill="#94a3b8" font-size="10">10,000 headline subset of ABC News dataset (50,000 total). All methods standardized to 50 clusters.</text><text x="135" y="75" text-anchor="middle" fill="#e2e8f0" font-size="11" font-weight="bold">Silhouette ↑</text><line x1="65" y1="90" x2="65" y2="360" stroke="#334155" stroke-width="1"/><rect x="70" y="135.45454545454547" width="20" height="204.54545454545453" rx="2" fill="#22d3ee" opacity="0.85"/><text x="80" y="133.45454545454547" text-anchor="middle" fill="#e2e8f0" font-size="7">0.18</text><text x="80" y="354" text-anchor="middle" fill="#94a3b8" font-size="7" transform="rotate(-45,80,354)">PCA+GMM</text><rect x="98" y="90.0" width="20" height="250.0" rx="2" fill="#22d3ee" opacity="0.85"/><text x="108" y="88.0" text-anchor="middle" fill="#e2e8f0" font-size="7">0.22</text><text x="108" y="354" text-anchor="middle" fill="#94a3b8" font-size="7" transform="rotate(-45,108,354)">mpnet+GMM</text><rect x="126" y="249.0909090909091" width="20" height="90.9090909090909" rx="2" fill="#22d3ee" opacity="0.85"/><text x="136" y="247.0909090909091" text-anchor="middle" fill="#e2e8f0" font-size="7">0.08</text><text x="136" y="354" text-anchor="middle" fill="#94a3b8" font-size="7" transform="rotate(-45,136,354)">GSDMM</text><rect x="154" y="112.72727272727272" width="20" height="227.27272727272728" rx="2" fill="#22d3ee" opacity="0.85"/><text x="164" y="110.72727272727272" text-anchor="middle" fill="#e2e8f0" font-size="7">0.2</text><text x="164" y="354" text-anchor="middle" fill="#94a3b8" font-size="7" transform="rotate(-45,164,354)">TopiCLEAR</text><rect x="182" y="169.54545454545456" width="20" height="170.45454545454544" rx="2" fill="#22d3ee" opacity="0.85"/><text x="192" y="167.54545454545456" text-anchor="middle" fill="#e2e8f0" font-size="7">0.15</text><text x="192" y="354" text-anchor="middle" fill="#94a3b8" font-size="7" transform="rotate(-45,192,354)">UMAP+GMM</text><rect x="210" y="101.36363636363637" width="20" height="238.63636363636363" rx="2" fill="#22d3ee" opacity="0.85"/><text x="220" y="99.36363636363637" text-anchor="middle" fill="#e2e8f0" font-size="7">0.21</text><text x="220" y="354" text-anchor="middle" fill="#94a3b8" font-size="7" transform="rotate(-45,220,354)">Fusion</text><text x="345" y="75" text-anchor="middle" fill="#e2e8f0" font-size="11" font-weight="bold">Calinski-Harabasz ↑</text><line x1="275" y1="90" x2="275" y2="360" stroke="#334155" stroke-width="1"/><rect x="280" y="109.02173913043478" width="20" height="230.97826086956522" rx="2" fill="#34d399" opacity="0.85"/><text x="290" y="107.02173913043478" text-anchor="middle" fill="#e2e8f0" font-size="7">850</text><text x="290" y="354" text-anchor="middle" fill="#94a3b8" font-size="7" transform="rotate(-45,290,354)">PCA+GMM</text><rect x="308" y="90.0" width="20" height="250.0" rx="2" fill="#34d399" opacity="0.85"/><text x="318" y="88.0" text-anchor="middle" fill="#e2e8f0" font-size="7">920</text><text x="318" y="354" text-anchor="middle" fill="#94a3b8" font-size="7" transform="rotate(-45,318,354)">mpnet+GMM</text><rect x="336" y="255.76086956521738" width="20" height="84.23913043478261" rx="2" fill="#34d399" opacity="0.85"/><text x="346" y="253.76086956521738" text-anchor="middle" fill="#e2e8f0" font-size="7">310</text><text x="346" y="354" text-anchor="middle" fill="#94a3b8" font-size="7" transform="rotate(-45,346,354)">GSDMM</text><rect x="364" y="100.86956521739128" width="20" height="239.13043478260872" rx="2" fill="#34d399" opacity="0.85"/><text x="374" y="98.86956521739128" text-anchor="middle" fill="#e2e8f0" font-size="7">880</text><text x="374" y="354" text-anchor="middle" fill="#94a3b8" font-size="7" transform="rotate(-45,374,354)">TopiCLEAR</text><rect x="392" y="144.3478260869565" width="20" height="195.6521739130435" rx="2" fill="#34d399" opacity="0.85"/><text x="402" y="142.3478260869565" text-anchor="middle" fill="#e2e8f0" font-size="7">720</text><text x="402" y="354" text-anchor="middle" fill="#94a3b8" font-size="7" transform="rotate(-45,402,354)">UMAP+GMM</text><rect x="420" y="95.43478260869566" width="20" height="244.56521739130434" rx="2" fill="#34d399" opacity="0.85"/><text x="430" y="93.43478260869566" text-anchor="middle" fill="#e2e8f0" font-size="7">900</text><text x="430" y="354" text-anchor="middle" fill="#94a3b8" font-size="7" transform="rotate(-45,430,354)">Fusion</text><text x="555" y="75" text-anchor="middle" fill="#e2e8f0" font-size="11" font-weight="bold">Davies-Bouldin ↓</text><line x1="485" y1="90" x2="485" y2="360" stroke="#334155" stroke-width="1"/><rect x="490" y="184.82758620689654" width="20" height="155.17241379310346" rx="2" fill="#fbbf24" opacity="0.85"/><text x="500" y="182.82758620689654" text-anchor="middle" fill="#e2e8f0" font-size="7">1.8</text><text x="500" y="354" text-anchor="middle" fill="#94a3b8" font-size="7" transform="rotate(-45,500,354)">PCA+GMM</text><rect x="518" y="210.68965517241378" width="20" height="129.31034482758622" rx="2" fill="#fbbf24" opacity="0.85"/><text x="528" y="208.68965517241378" text-anchor="middle" fill="#e2e8f0" font-size="7">1.5</text><text x="528" y="354" text-anchor="middle" fill="#94a3b8" font-size="7" transform="rotate(-45,528,354)">mpnet+GMM</text><rect x="546" y="90.0" width="20" height="250.0" rx="2" fill="#fbbf24" opacity="0.85"/><text x="556" y="88.0" text-anchor="middle" fill="#e2e8f0" font-size="7">2.9</text><text x="556" y="354" text-anchor="middle" fill="#94a3b8" font-size="7" transform="rotate(-45,556,354)">GSDMM</text><rect x="574" y="202.0689655172414" width="20" height="137.9310344827586" rx="2" fill="#fbbf24" opacity="0.85"/><text x="584" y="200.0689655172414" text-anchor="middle" fill="#e2e8f0" font-size="7">1.6</text><text x="584" y="354" text-anchor="middle" fill="#94a3b8" font-size="7" transform="rotate(-45,584,354)">TopiCLEAR</text><rect x="602" y="158.9655172413793" width="20" height="181.0344827586207" rx="2" fill="#fbbf24" opacity="0.85"/><text x="612" y="156.9655172413793" text-anchor="middle" fill="#e2e8f0" font-size="7">2.1</text><text x="612" y="354" text-anchor="middle" fill="#94a3b8" font-size="7" transform="rotate(-45,612,354)">UMAP+GMM</text><rect x="630" y="210.68965517241378" width="20" height="129.31034482758622" rx="2" fill="#fbbf24" opacity="0.85"/><text x="640" y="208.68965517241378" text-anchor="middle" fill="#e2e8f0" font-size="7">1.5</text><text x="640" y="354" text-anchor="middle" fill="#94a3b8" font-size="7" transform="rotate(-45,640,354)">Fusion</text><text x="765" y="75" text-anchor="middle" fill="#e2e8f0" font-size="11" font-weight="bold">Topic Coherence ↑</text><line x1="695" y1="90" x2="695" y2="360" stroke="#334155" stroke-width="1"/><rect x="700" y="149.0909090909091" width="20" height="190.9090909090909" rx="2" fill="#a78bfa" opacity="0.85"/><text x="710" y="147.0909090909091" text-anchor="middle" fill="#e2e8f0" font-size="7">0.042</text><text x="710" y="354" text-anchor="middle" fill="#94a3b8" font-size="7" transform="rotate(-45,710,354)">PCA+GMM</text><rect x="728" y="90.0" width="20" height="250.0" rx="2" fill="#a78bfa" opacity="0.85"/><text x="738" y="88.0" text-anchor="middle" fill="#e2e8f0" font-size="7">0.055</text><text x="738" y="354" text-anchor="middle" fill="#94a3b8" font-size="7" transform="rotate(-45,738,354)">mpnet+GMM</text><rect x="756" y="167.27272727272728" width="20" height="172.72727272727272" rx="2" fill="#a78bfa" opacity="0.85"/><text x="766" y="165.27272727272728" text-anchor="middle" fill="#e2e8f0" font-size="7">0.038</text><text x="766" y="354" text-anchor="middle" fill="#94a3b8" font-size="7" transform="rotate(-45,766,354)">GSDMM</text><rect x="784" y="121.81818181818181" width="20" height="218.1818181818182" rx="2" fill="#a78bfa" opacity="0.85"/><text x="794" y="119.81818181818181" text-anchor="middle" fill="#e2e8f0" font-size="7">0.048</text><text x="794" y="354" text-anchor="middle" fill="#94a3b8" font-size="7" transform="rotate(-45,794,354)">TopiCLEAR</text><rect x="812" y="158.1818181818182" width="20" height="181.8181818181818" rx="2" fill="#a78bfa" opacity="0.85"/><text x="822" y="156.1818181818182" text-anchor="middle" fill="#e2e8f0" font-size="7">0.04</text><text x="822" y="354" text-anchor="middle" fill="#94a3b8" font-size="7" transform="rotate(-45,822,354)">UMAP+GMM</text><rect x="840" y="112.72727272727272" width="20" height="227.27272727272728" rx="2" fill="#a78bfa" opacity="0.85"/><text x="850" y="110.72727272727272" text-anchor="middle" fill="#e2e8f0" font-size="7">0.05</text><text x="850" y="354" text-anchor="middle" fill="#94a3b8" font-size="7" transform="rotate(-45,850,354)">Fusion</text></svg>